<svg width="403" height="105" viewBox="0 0 403 105" fill="none" xmlns="http://www.w3.org/2000/svg">
<path d="M22.8281 32.6797H29.8359C29.6953 34.9766 29.0625 37.0156 27.9375 38.7969C26.8281 40.5781 25.2734 41.9688 23.2734 42.9688C21.2891 43.9688 18.8984 44.4688 16.1016 44.4688C13.9141 44.4688 11.9531 44.0938 10.2188 43.3438C8.48438 42.5781 7 41.4844 5.76562 40.0625C4.54688 38.6406 3.61719 36.9219 2.97656 34.9062C2.33594 32.8906 2.01562 30.6328 2.01562 28.1328V25.7656C2.01562 23.2656 2.34375 21.0078 3 18.9922C3.67188 16.9609 4.625 15.2344 5.85938 13.8125C7.10938 12.3906 8.60156 11.2969 10.3359 10.5312C12.0703 9.76562 14.0078 9.38281 16.1484 9.38281C18.9922 9.38281 21.3906 9.89844 23.3438 10.9297C25.3125 11.9609 26.8359 13.3828 27.9141 15.1953C29.0078 17.0078 29.6641 19.0703 29.8828 21.3828H22.8516C22.7734 20.0078 22.5 18.8438 22.0312 17.8906C21.5625 16.9219 20.8516 16.1953 19.8984 15.7109C18.9609 15.2109 17.7109 14.9609 16.1484 14.9609C14.9766 14.9609 13.9531 15.1797 13.0781 15.6172C12.2031 16.0547 11.4688 16.7188 10.875 17.6094C10.2812 18.5 9.83594 19.625 9.53906 20.9844C9.25781 22.3281 9.11719 23.9062 9.11719 25.7188V28.1328C9.11719 29.8984 9.25 31.4531 9.51562 32.7969C9.78125 34.125 10.1875 35.25 10.7344 36.1719C11.2969 37.0781 12.0156 37.7656 12.8906 38.2344C13.7812 38.6875 14.8516 38.9141 16.1016 38.9141C17.5703 38.9141 18.7812 38.6797 19.7344 38.2109C20.6875 37.7422 21.4141 37.0469 21.9141 36.125C22.4297 35.2031 22.7344 34.0547 22.8281 32.6797ZM52.2188 35.0703C52.2188 34.4609 52.125 33.9141 51.9375 33.4297C51.7656 32.9297 51.4375 32.4766 50.9531 32.0703C50.4688 31.6484 49.7891 31.2344 48.9141 30.8281C48.0391 30.4219 46.9062 30 45.5156 29.5625C43.9688 29.0625 42.5 28.5 41.1094 27.875C39.7344 27.25 38.5156 26.5234 37.4531 25.6953C36.4062 24.8516 35.5781 23.875 34.9688 22.7656C34.375 21.6562 34.0781 20.3672 34.0781 18.8984C34.0781 17.4766 34.3906 16.1875 35.0156 15.0312C35.6406 13.8594 36.5156 12.8594 37.6406 12.0312C38.7656 11.1875 40.0938 10.5391 41.625 10.0859C43.1719 9.63281 44.8672 9.40625 46.7109 9.40625C49.2266 9.40625 51.4219 9.85937 53.2969 10.7656C55.1719 11.6719 56.625 12.9141 57.6562 14.4922C58.7031 16.0703 59.2266 17.875 59.2266 19.9062H52.2422C52.2422 18.9062 52.0312 18.0312 51.6094 17.2812C51.2031 16.5156 50.5781 15.9141 49.7344 15.4766C48.9062 15.0391 47.8594 14.8203 46.5938 14.8203C45.375 14.8203 44.3594 15.0078 43.5469 15.3828C42.7344 15.7422 42.125 16.2344 41.7188 16.8594C41.3125 17.4688 41.1094 18.1562 41.1094 18.9219C41.1094 19.5 41.25 20.0234 41.5312 20.4922C41.8281 20.9609 42.2656 21.3984 42.8438 21.8047C43.4219 22.2109 44.1328 22.5938 44.9766 22.9531C45.8203 23.3125 46.7969 23.6641 47.9062 24.0078C49.7656 24.5703 51.3984 25.2031 52.8047 25.9062C54.2266 26.6094 55.4141 27.3984 56.3672 28.2734C57.3203 29.1484 58.0391 30.1406 58.5234 31.25C59.0078 32.3594 59.25 33.6172 59.25 35.0234C59.25 36.5078 58.9609 37.8359 58.3828 39.0078C57.8047 40.1797 56.9688 41.1719 55.875 41.9844C54.7812 42.7969 53.4766 43.4141 51.9609 43.8359C50.4453 44.2578 48.75 44.4688 46.875 44.4688C45.1875 44.4688 43.5234 44.25 41.8828 43.8125C40.2422 43.3594 38.75 42.6797 37.4062 41.7734C36.0781 40.8672 35.0156 39.7109 34.2188 38.3047C33.4219 36.8984 33.0234 35.2344 33.0234 33.3125H40.0781C40.0781 34.375 40.2422 35.2734 40.5703 36.0078C40.8984 36.7422 41.3594 37.3359 41.9531 37.7891C42.5625 38.2422 43.2812 38.5703 44.1094 38.7734C44.9531 38.9766 45.875 39.0781 46.875 39.0781C48.0938 39.0781 49.0938 38.9062 49.875 38.5625C50.6719 38.2188 51.2578 37.7422 51.6328 37.1328C52.0234 36.5234 52.2188 35.8359 52.2188 35.0703ZM83.8125 32.6797H90.8203C90.6797 34.9766 90.0469 37.0156 88.9219 38.7969C87.8125 40.5781 86.2578 41.9688 84.2578 42.9688C82.2734 43.9688 79.8828 44.4688 77.0859 44.4688C74.8984 44.4688 72.9375 44.0938 71.2031 43.3438C69.4688 42.5781 67.9844 41.4844 66.75 40.0625C65.5312 38.6406 64.6016 36.9219 63.9609 34.9062C63.3203 32.8906 63 30.6328 63 28.1328V25.7656C63 23.2656 63.3281 21.0078 63.9844 18.9922C64.6562 16.9609 65.6094 15.2344 66.8438 13.8125C68.0938 12.3906 69.5859 11.2969 71.3203 10.5312C73.0547 9.76562 74.9922 9.38281 77.1328 9.38281C79.9766 9.38281 82.375 9.89844 84.3281 10.9297C86.2969 11.9609 87.8203 13.3828 88.8984 15.1953C89.9922 17.0078 90.6484 19.0703 90.8672 21.3828H83.8359C83.7578 20.0078 83.4844 18.8438 83.0156 17.8906C82.5469 16.9219 81.8359 16.1953 80.8828 15.7109C79.9453 15.2109 78.6953 14.9609 77.1328 14.9609C75.9609 14.9609 74.9375 15.1797 74.0625 15.6172C73.1875 16.0547 72.4531 16.7188 71.8594 17.6094C71.2656 18.5 70.8203 19.625 70.5234 20.9844C70.2422 22.3281 70.1016 23.9062 70.1016 25.7188V28.1328C70.1016 29.8984 70.2344 31.4531 70.5 32.7969C70.7656 34.125 71.1719 35.25 71.7188 36.1719C72.2812 37.0781 73 37.7656 73.875 38.2344C74.7656 38.6875 75.8359 38.9141 77.0859 38.9141C78.5547 38.9141 79.7656 38.6797 80.7188 38.2109C81.6719 37.7422 82.3984 37.0469 82.8984 36.125C83.4141 35.2031 83.7188 34.0547 83.8125 32.6797ZM16.4062 85.0234H7.64062L7.59375 80.1953H14.9531C16.25 80.1953 17.3125 80.0312 18.1406 79.7031C18.9688 79.3594 19.5859 78.8672 19.9922 78.2266C20.4141 77.5703 20.625 76.7734 20.625 75.8359C20.625 74.7734 20.4219 73.9141 20.0156 73.2578C19.625 72.6016 19.0078 72.125 18.1641 71.8281C17.3359 71.5312 16.2656 71.3828 14.9531 71.3828H10.0781V100H3.04688V65.875H14.9531C16.9375 65.875 18.7109 66.0625 20.2734 66.4375C21.8516 66.8125 23.1875 67.3828 24.2812 68.1484C25.375 68.9141 26.2109 69.8828 26.7891 71.0547C27.3672 72.2109 27.6562 73.5859 27.6562 75.1797C27.6562 76.5859 27.3359 77.8828 26.6953 79.0703C26.0703 80.2578 25.0781 81.2266 23.7188 81.9766C22.375 82.7266 20.6172 83.1406 18.4453 83.2188L16.4062 85.0234ZM16.1016 100H5.71875L8.46094 94.5156H16.1016C17.3359 94.5156 18.3438 94.3203 19.125 93.9297C19.9062 93.5234 20.4844 92.9766 20.8594 92.2891C21.2344 91.6016 21.4219 90.8125 21.4219 89.9219C21.4219 88.9219 21.25 88.0547 20.9062 87.3203C20.5781 86.5859 20.0469 86.0234 19.3125 85.6328C18.5781 85.2266 17.6094 85.0234 16.4062 85.0234H9.63281L9.67969 80.1953H18.1172L19.7344 82.0938C21.8125 82.0625 23.4844 82.4297 24.75 83.1953C26.0312 83.9453 26.9609 84.9219 27.5391 86.125C28.1328 87.3281 28.4297 88.6172 28.4297 89.9922C28.4297 92.1797 27.9531 94.0234 27 95.5234C26.0469 97.0078 24.6484 98.125 22.8047 98.875C20.9766 99.625 18.7422 100 16.1016 100ZM56.3438 94.7266V100H33V95.5L44.0391 83.6641C45.1484 82.4297 46.0234 81.3438 46.6641 80.4062C47.3047 79.4531 47.7656 78.6016 48.0469 77.8516C48.3438 77.0859 48.4922 76.3594 48.4922 75.6719C48.4922 74.6406 48.3203 73.7578 47.9766 73.0234C47.6328 72.2734 47.125 71.6953 46.4531 71.2891C45.7969 70.8828 44.9844 70.6797 44.0156 70.6797C42.9844 70.6797 42.0938 70.9297 41.3438 71.4297C40.6094 71.9297 40.0469 72.625 39.6562 73.5156C39.2812 74.4062 39.0938 75.4141 39.0938 76.5391H32.3203C32.3203 74.5078 32.8047 72.6484 33.7734 70.9609C34.7422 69.2578 36.1094 67.9062 37.875 66.9062C39.6406 65.8906 41.7344 65.3828 44.1562 65.3828C46.5469 65.3828 48.5625 65.7734 50.2031 66.5547C51.8594 67.3203 53.1094 68.4297 53.9531 69.8828C54.8125 71.3203 55.2422 73.0391 55.2422 75.0391C55.2422 76.1641 55.0625 77.2656 54.7031 78.3438C54.3438 79.4062 53.8281 80.4688 53.1562 81.5312C52.5 82.5781 51.7031 83.6406 50.7656 84.7188C49.8281 85.7969 48.7891 86.9141 47.6484 88.0703L41.7188 94.7266H56.3438ZM83.5312 79.9375V85.8438C83.5312 88.4062 83.2578 90.6172 82.7109 92.4766C82.1641 94.3203 81.375 95.8359 80.3438 97.0234C79.3281 98.1953 78.1172 99.0625 76.7109 99.625C75.3047 100.188 73.7422 100.469 72.0234 100.469C70.6484 100.469 69.3672 100.297 68.1797 99.9531C66.9922 99.5938 65.9219 99.0391 64.9688 98.2891C64.0312 97.5391 63.2188 96.5938 62.5312 95.4531C61.8594 94.2969 61.3438 92.9219 60.9844 91.3281C60.625 89.7344 60.4453 87.9062 60.4453 85.8438V79.9375C60.4453 77.375 60.7188 75.1797 61.2656 73.3516C61.8281 71.5078 62.6172 70 63.6328 68.8281C64.6641 67.6562 65.8828 66.7969 67.2891 66.25C68.6953 65.6875 70.2578 65.4062 71.9766 65.4062C73.3516 65.4062 74.625 65.5859 75.7969 65.9453C76.9844 66.2891 78.0547 66.8281 79.0078 67.5625C79.9609 68.2969 80.7734 69.2422 81.4453 70.3984C82.1172 71.5391 82.6328 72.9062 82.9922 74.5C83.3516 76.0781 83.5312 77.8906 83.5312 79.9375ZM76.7578 86.7344V79.0234C76.7578 77.7891 76.6875 76.7109 76.5469 75.7891C76.4219 74.8672 76.2266 74.0859 75.9609 73.4453C75.6953 72.7891 75.3672 72.2578 74.9766 71.8516C74.5859 71.4453 74.1406 71.1484 73.6406 70.9609C73.1406 70.7734 72.5859 70.6797 71.9766 70.6797C71.2109 70.6797 70.5312 70.8281 69.9375 71.125C69.3594 71.4219 68.8672 71.8984 68.4609 72.5547C68.0547 73.1953 67.7422 74.0547 67.5234 75.1328C67.3203 76.1953 67.2188 77.4922 67.2188 79.0234V86.7344C67.2188 87.9688 67.2812 89.0547 67.4062 89.9922C67.5469 90.9297 67.75 91.7344 68.0156 92.4062C68.2969 93.0625 68.625 93.6016 69 94.0234C69.3906 94.4297 69.8359 94.7266 70.3359 94.9141C70.8516 95.1016 71.4141 95.1953 72.0234 95.1953C72.7734 95.1953 73.4375 95.0469 74.0156 94.75C74.6094 94.4375 75.1094 93.9531 75.5156 93.2969C75.9375 92.625 76.25 91.75 76.4531 90.6719C76.6562 89.5938 76.7578 88.2812 76.7578 86.7344Z" fill="#F3F3F3"/>
<path d="M125.406 15.9375V33H123.145V15.9375H125.406ZM131.359 23.0273V33H129.191V20.3203H131.242L131.359 23.0273ZM130.844 26.1797L129.941 26.1445C129.949 25.2773 130.078 24.4766 130.328 23.7422C130.578 23 130.93 22.3555 131.383 21.8086C131.836 21.2617 132.375 20.8398 133 20.543C133.633 20.2383 134.332 20.0859 135.098 20.0859C135.723 20.0859 136.285 20.1719 136.785 20.3438C137.285 20.5078 137.711 20.7734 138.062 21.1406C138.422 21.5078 138.695 21.9844 138.883 22.5703C139.07 23.1484 139.164 23.8555 139.164 24.6914V33H136.984V24.668C136.984 24.0039 136.887 23.4727 136.691 23.0742C136.496 22.668 136.211 22.375 135.836 22.1953C135.461 22.0078 135 21.9141 134.453 21.9141C133.914 21.9141 133.422 22.0273 132.977 22.2539C132.539 22.4805 132.16 22.793 131.84 23.1914C131.527 23.5898 131.281 24.0469 131.102 24.5625C130.93 25.0703 130.844 25.6094 130.844 26.1797ZM147.766 20.3203V21.9844H140.91V20.3203H147.766ZM143.23 17.2383H145.398V29.8594C145.398 30.2891 145.465 30.6133 145.598 30.832C145.73 31.0508 145.902 31.1953 146.113 31.2656C146.324 31.3359 146.551 31.3711 146.793 31.3711C146.973 31.3711 147.16 31.3555 147.355 31.3242C147.559 31.2852 147.711 31.2539 147.812 31.2305L147.824 33C147.652 33.0547 147.426 33.1055 147.145 33.1523C146.871 33.207 146.539 33.2344 146.148 33.2344C145.617 33.2344 145.129 33.1289 144.684 32.918C144.238 32.707 143.883 32.3555 143.617 31.8633C143.359 31.3633 143.23 30.6914 143.23 29.8477V17.2383ZM152.477 22.3125V33H150.309V20.3203H152.418L152.477 22.3125ZM156.438 20.25L156.426 22.2656C156.246 22.2266 156.074 22.2031 155.91 22.1953C155.754 22.1797 155.574 22.1719 155.371 22.1719C154.871 22.1719 154.43 22.25 154.047 22.4062C153.664 22.5625 153.34 22.7812 153.074 23.0625C152.809 23.3438 152.598 23.6797 152.441 24.0703C152.293 24.4531 152.195 24.875 152.148 25.3359L151.539 25.6875C151.539 24.9219 151.613 24.2031 151.762 23.5312C151.918 22.8594 152.156 22.2656 152.477 21.75C152.797 21.2266 153.203 20.8203 153.695 20.5312C154.195 20.2344 154.789 20.0859 155.477 20.0859C155.633 20.0859 155.812 20.1055 156.016 20.1445C156.219 20.1758 156.359 20.2109 156.438 20.25ZM157.633 26.8008V26.5312C157.633 25.6172 157.766 24.7695 158.031 23.9883C158.297 23.1992 158.68 22.5156 159.18 21.9375C159.68 21.3516 160.285 20.8984 160.996 20.5781C161.707 20.25 162.504 20.0859 163.387 20.0859C164.277 20.0859 165.078 20.25 165.789 20.5781C166.508 20.8984 167.117 21.3516 167.617 21.9375C168.125 22.5156 168.512 23.1992 168.777 23.9883C169.043 24.7695 169.176 25.6172 169.176 26.5312V26.8008C169.176 27.7148 169.043 28.5625 168.777 29.3438C168.512 30.125 168.125 30.8086 167.617 31.3945C167.117 31.9727 166.512 32.4258 165.801 32.7539C165.098 33.0742 164.301 33.2344 163.41 33.2344C162.52 33.2344 161.719 33.0742 161.008 32.7539C160.297 32.4258 159.688 31.9727 159.18 31.3945C158.68 30.8086 158.297 30.125 158.031 29.3438C157.766 28.5625 157.633 27.7148 157.633 26.8008ZM159.801 26.5312V26.8008C159.801 27.4336 159.875 28.0312 160.023 28.5938C160.172 29.1484 160.395 29.6406 160.691 30.0703C160.996 30.5 161.375 30.8398 161.828 31.0898C162.281 31.332 162.809 31.4531 163.41 31.4531C164.004 31.4531 164.523 31.332 164.969 31.0898C165.422 30.8398 165.797 30.5 166.094 30.0703C166.391 29.6406 166.613 29.1484 166.762 28.5938C166.918 28.0312 166.996 27.4336 166.996 26.8008V26.5312C166.996 25.9062 166.918 25.3164 166.762 24.7617C166.613 24.1992 166.387 23.7031 166.082 23.2734C165.785 22.8359 165.41 22.4922 164.957 22.2422C164.512 21.9922 163.988 21.8672 163.387 21.8672C162.793 21.8672 162.27 21.9922 161.816 22.2422C161.371 22.4922 160.996 22.8359 160.691 23.2734C160.395 23.7031 160.172 24.1992 160.023 24.7617C159.875 25.3164 159.801 25.9062 159.801 26.5312ZM179.887 30.5391V15H182.066V33H180.074L179.887 30.5391ZM171.355 26.8008V26.5547C171.355 25.5859 171.473 24.707 171.707 23.918C171.949 23.1211 172.289 22.4375 172.727 21.8672C173.172 21.2969 173.699 20.8594 174.309 20.5547C174.926 20.2422 175.613 20.0859 176.371 20.0859C177.168 20.0859 177.863 20.2266 178.457 20.5078C179.059 20.7812 179.566 21.1836 179.98 21.7148C180.402 22.2383 180.734 22.8711 180.977 23.6133C181.219 24.3555 181.387 25.1953 181.48 26.1328V27.2109C181.395 28.1406 181.227 28.9766 180.977 29.7188C180.734 30.4609 180.402 31.0938 179.98 31.6172C179.566 32.1406 179.059 32.543 178.457 32.8242C177.855 33.0977 177.152 33.2344 176.348 33.2344C175.605 33.2344 174.926 33.0742 174.309 32.7539C173.699 32.4336 173.172 31.9844 172.727 31.4062C172.289 30.8281 171.949 30.1484 171.707 29.3672C171.473 28.5781 171.355 27.7227 171.355 26.8008ZM173.535 26.5547V26.8008C173.535 27.4336 173.598 28.0273 173.723 28.582C173.855 29.1367 174.059 29.625 174.332 30.0469C174.605 30.4688 174.953 30.8008 175.375 31.043C175.797 31.2773 176.301 31.3945 176.887 31.3945C177.605 31.3945 178.195 31.2422 178.656 30.9375C179.125 30.6328 179.5 30.2305 179.781 29.7305C180.062 29.2305 180.281 28.6875 180.438 28.1016V25.2773C180.344 24.8477 180.207 24.4336 180.027 24.0352C179.855 23.6289 179.629 23.2695 179.348 22.957C179.074 22.6367 178.734 22.3828 178.328 22.1953C177.93 22.0078 177.457 21.9141 176.91 21.9141C176.316 21.9141 175.805 22.0391 175.375 22.2891C174.953 22.5312 174.605 22.8672 174.332 23.2969C174.059 23.7188 173.855 24.2109 173.723 24.7734C173.598 25.3281 173.535 25.9219 173.535 26.5547ZM193.199 30.0703V20.3203H195.379V33H193.305L193.199 30.0703ZM193.609 27.3984L194.512 27.375C194.512 28.2188 194.422 29 194.242 29.7188C194.07 30.4297 193.789 31.0469 193.398 31.5703C193.008 32.0938 192.496 32.5039 191.863 32.8008C191.23 33.0898 190.461 33.2344 189.555 33.2344C188.938 33.2344 188.371 33.1445 187.855 32.9648C187.348 32.7852 186.91 32.5078 186.543 32.1328C186.176 31.7578 185.891 31.2695 185.688 30.668C185.492 30.0664 185.395 29.3438 185.395 28.5V20.3203H187.562V28.5234C187.562 29.0938 187.625 29.5664 187.75 29.9414C187.883 30.3086 188.059 30.6016 188.277 30.8203C188.504 31.0312 188.754 31.1797 189.027 31.2656C189.309 31.3516 189.598 31.3945 189.895 31.3945C190.816 31.3945 191.547 31.2188 192.086 30.8672C192.625 30.5078 193.012 30.0273 193.246 29.4258C193.488 28.8164 193.609 28.1406 193.609 27.3984ZM203.758 31.4531C204.273 31.4531 204.75 31.3477 205.188 31.1367C205.625 30.9258 205.984 30.6367 206.266 30.2695C206.547 29.8945 206.707 29.4688 206.746 28.9922H208.809C208.77 29.7422 208.516 30.4414 208.047 31.0898C207.586 31.7305 206.98 32.25 206.23 32.6484C205.48 33.0391 204.656 33.2344 203.758 33.2344C202.805 33.2344 201.973 33.0664 201.262 32.7305C200.559 32.3945 199.973 31.9336 199.504 31.3477C199.043 30.7617 198.695 30.0898 198.461 29.332C198.234 28.5664 198.121 27.7578 198.121 26.9062V26.4141C198.121 25.5625 198.234 24.7578 198.461 24C198.695 23.2344 199.043 22.5586 199.504 21.9727C199.973 21.3867 200.559 20.9258 201.262 20.5898C201.973 20.2539 202.805 20.0859 203.758 20.0859C204.75 20.0859 205.617 20.2891 206.359 20.6953C207.102 21.0938 207.684 21.6406 208.105 22.3359C208.535 23.0234 208.77 23.8047 208.809 24.6797H206.746C206.707 24.1562 206.559 23.6836 206.301 23.2617C206.051 22.8398 205.707 22.5039 205.27 22.2539C204.84 21.9961 204.336 21.8672 203.758 21.8672C203.094 21.8672 202.535 22 202.082 22.2656C201.637 22.5234 201.281 22.875 201.016 23.3203C200.758 23.7578 200.57 24.2461 200.453 24.7852C200.344 25.3164 200.289 25.8594 200.289 26.4141V26.9062C200.289 27.4609 200.344 28.0078 200.453 28.5469C200.562 29.0859 200.746 29.5742 201.004 30.0117C201.27 30.4492 201.625 30.8008 202.07 31.0664C202.523 31.3242 203.086 31.4531 203.758 31.4531ZM216.555 20.3203V21.9844H209.699V20.3203H216.555ZM212.02 17.2383H214.188V29.8594C214.188 30.2891 214.254 30.6133 214.387 30.832C214.52 31.0508 214.691 31.1953 214.902 31.2656C215.113 31.3359 215.34 31.3711 215.582 31.3711C215.762 31.3711 215.949 31.3555 216.145 31.3242C216.348 31.2852 216.5 31.2539 216.602 31.2305L216.613 33C216.441 33.0547 216.215 33.1055 215.934 33.1523C215.66 33.207 215.328 33.2344 214.938 33.2344C214.406 33.2344 213.918 33.1289 213.473 32.918C213.027 32.707 212.672 32.3555 212.406 31.8633C212.148 31.3633 212.02 30.6914 212.02 29.8477V17.2383ZM221.453 20.3203V33H219.273V20.3203H221.453ZM219.109 16.957C219.109 16.6055 219.215 16.3086 219.426 16.0664C219.645 15.8242 219.965 15.7031 220.387 15.7031C220.801 15.7031 221.117 15.8242 221.336 16.0664C221.562 16.3086 221.676 16.6055 221.676 16.957C221.676 17.293 221.562 17.582 221.336 17.8242C221.117 18.0586 220.801 18.1758 220.387 18.1758C219.965 18.1758 219.645 18.0586 219.426 17.8242C219.215 17.582 219.109 17.293 219.109 16.957ZM224.359 26.8008V26.5312C224.359 25.6172 224.492 24.7695 224.758 23.9883C225.023 23.1992 225.406 22.5156 225.906 21.9375C226.406 21.3516 227.012 20.8984 227.723 20.5781C228.434 20.25 229.23 20.0859 230.113 20.0859C231.004 20.0859 231.805 20.25 232.516 20.5781C233.234 20.8984 233.844 21.3516 234.344 21.9375C234.852 22.5156 235.238 23.1992 235.504 23.9883C235.77 24.7695 235.902 25.6172 235.902 26.5312V26.8008C235.902 27.7148 235.77 28.5625 235.504 29.3438C235.238 30.125 234.852 30.8086 234.344 31.3945C233.844 31.9727 233.238 32.4258 232.527 32.7539C231.824 33.0742 231.027 33.2344 230.137 33.2344C229.246 33.2344 228.445 33.0742 227.734 32.7539C227.023 32.4258 226.414 31.9727 225.906 31.3945C225.406 30.8086 225.023 30.125 224.758 29.3438C224.492 28.5625 224.359 27.7148 224.359 26.8008ZM226.527 26.5312V26.8008C226.527 27.4336 226.602 28.0312 226.75 28.5938C226.898 29.1484 227.121 29.6406 227.418 30.0703C227.723 30.5 228.102 30.8398 228.555 31.0898C229.008 31.332 229.535 31.4531 230.137 31.4531C230.73 31.4531 231.25 31.332 231.695 31.0898C232.148 30.8398 232.523 30.5 232.82 30.0703C233.117 29.6406 233.34 29.1484 233.488 28.5938C233.645 28.0312 233.723 27.4336 233.723 26.8008V26.5312C233.723 25.9062 233.645 25.3164 233.488 24.7617C233.34 24.1992 233.113 23.7031 232.809 23.2734C232.512 22.8359 232.137 22.4922 231.684 22.2422C231.238 21.9922 230.715 21.8672 230.113 21.8672C229.52 21.8672 228.996 21.9922 228.543 22.2422C228.098 22.4922 227.723 22.8359 227.418 23.2734C227.121 23.7031 226.898 24.1992 226.75 24.7617C226.602 25.3164 226.527 25.9062 226.527 26.5312ZM240.789 23.0273V33H238.621V20.3203H240.672L240.789 23.0273ZM240.273 26.1797L239.371 26.1445C239.379 25.2773 239.508 24.4766 239.758 23.7422C240.008 23 240.359 22.3555 240.812 21.8086C241.266 21.2617 241.805 20.8398 242.43 20.543C243.062 20.2383 243.762 20.0859 244.527 20.0859C245.152 20.0859 245.715 20.1719 246.215 20.3438C246.715 20.5078 247.141 20.7734 247.492 21.1406C247.852 21.5078 248.125 21.9844 248.312 22.5703C248.5 23.1484 248.594 23.8555 248.594 24.6914V33H246.414V24.668C246.414 24.0039 246.316 23.4727 246.121 23.0742C245.926 22.668 245.641 22.375 245.266 22.1953C244.891 22.0078 244.43 21.9141 243.883 21.9141C243.344 21.9141 242.852 22.0273 242.406 22.2539C241.969 22.4805 241.59 22.793 241.27 23.1914C240.957 23.5898 240.711 24.0469 240.531 24.5625C240.359 25.0703 240.273 25.6094 240.273 26.1797ZM263.148 20.3203V21.9844H256.293V20.3203H263.148ZM258.613 17.2383H260.781V29.8594C260.781 30.2891 260.848 30.6133 260.98 30.832C261.113 31.0508 261.285 31.1953 261.496 31.2656C261.707 31.3359 261.934 31.3711 262.176 31.3711C262.355 31.3711 262.543 31.3555 262.738 31.3242C262.941 31.2852 263.094 31.2539 263.195 31.2305L263.207 33C263.035 33.0547 262.809 33.1055 262.527 33.1523C262.254 33.207 261.922 33.2344 261.531 33.2344C261 33.2344 260.512 33.1289 260.066 32.918C259.621 32.707 259.266 32.3555 259 31.8633C258.742 31.3633 258.613 30.6914 258.613 29.8477V17.2383ZM264.883 26.8008V26.5312C264.883 25.6172 265.016 24.7695 265.281 23.9883C265.547 23.1992 265.93 22.5156 266.43 21.9375C266.93 21.3516 267.535 20.8984 268.246 20.5781C268.957 20.25 269.754 20.0859 270.637 20.0859C271.527 20.0859 272.328 20.25 273.039 20.5781C273.758 20.8984 274.367 21.3516 274.867 21.9375C275.375 22.5156 275.762 23.1992 276.027 23.9883C276.293 24.7695 276.426 25.6172 276.426 26.5312V26.8008C276.426 27.7148 276.293 28.5625 276.027 29.3438C275.762 30.125 275.375 30.8086 274.867 31.3945C274.367 31.9727 273.762 32.4258 273.051 32.7539C272.348 33.0742 271.551 33.2344 270.66 33.2344C269.77 33.2344 268.969 33.0742 268.258 32.7539C267.547 32.4258 266.938 31.9727 266.43 31.3945C265.93 30.8086 265.547 30.125 265.281 29.3438C265.016 28.5625 264.883 27.7148 264.883 26.8008ZM267.051 26.5312V26.8008C267.051 27.4336 267.125 28.0312 267.273 28.5938C267.422 29.1484 267.645 29.6406 267.941 30.0703C268.246 30.5 268.625 30.8398 269.078 31.0898C269.531 31.332 270.059 31.4531 270.66 31.4531C271.254 31.4531 271.773 31.332 272.219 31.0898C272.672 30.8398 273.047 30.5 273.344 30.0703C273.641 29.6406 273.863 29.1484 274.012 28.5938C274.168 28.0312 274.246 27.4336 274.246 26.8008V26.5312C274.246 25.9062 274.168 25.3164 274.012 24.7617C273.863 24.1992 273.637 23.7031 273.332 23.2734C273.035 22.8359 272.66 22.4922 272.207 22.2422C271.762 21.9922 271.238 21.8672 270.637 21.8672C270.043 21.8672 269.52 21.9922 269.066 22.2422C268.621 22.4922 268.246 22.8359 267.941 23.2734C267.645 23.7031 267.422 24.1992 267.273 24.7617C267.125 25.3164 267.051 25.9062 267.051 26.5312ZM127.598 61H124.035L124.059 59.1602H127.598C128.816 59.1602 129.832 58.9062 130.645 58.3984C131.457 57.8828 132.066 57.1641 132.473 56.2422C132.887 55.3125 133.094 54.2266 133.094 52.9844V51.9414C133.094 50.9648 132.977 50.0977 132.742 49.3398C132.508 48.5742 132.164 47.9297 131.711 47.4062C131.258 46.875 130.703 46.4727 130.047 46.1992C129.398 45.9258 128.652 45.7891 127.809 45.7891H123.965V43.9375H127.809C128.926 43.9375 129.945 44.125 130.867 44.5C131.789 44.8672 132.582 45.4023 133.246 46.1055C133.918 46.8008 134.434 47.6445 134.793 48.6367C135.152 49.6211 135.332 50.7305 135.332 51.9648V52.9844C135.332 54.2188 135.152 55.332 134.793 56.3242C134.434 57.3086 133.914 58.1484 133.234 58.8438C132.562 59.5391 131.75 60.0742 130.797 60.4492C129.852 60.8164 128.785 61 127.598 61ZM125.242 43.9375V61H122.98V43.9375H125.242ZM145.879 58.832V52.3047C145.879 51.8047 145.777 51.3711 145.574 51.0039C145.379 50.6289 145.082 50.3398 144.684 50.1367C144.285 49.9336 143.793 49.832 143.207 49.832C142.66 49.832 142.18 49.9258 141.766 50.1133C141.359 50.3008 141.039 50.5469 140.805 50.8516C140.578 51.1562 140.465 51.4844 140.465 51.8359H138.297C138.297 51.3828 138.414 50.9336 138.648 50.4883C138.883 50.043 139.219 49.6406 139.656 49.2812C140.102 48.9141 140.633 48.625 141.25 48.4141C141.875 48.1953 142.57 48.0859 143.336 48.0859C144.258 48.0859 145.07 48.2422 145.773 48.5547C146.484 48.8672 147.039 49.3398 147.438 49.9727C147.844 50.5977 148.047 51.3828 148.047 52.3281V58.2344C148.047 58.6562 148.082 59.1055 148.152 59.582C148.23 60.0586 148.344 60.4688 148.492 60.8125V61H146.23C146.121 60.75 146.035 60.418 145.973 60.0039C145.91 59.582 145.879 59.1914 145.879 58.832ZM146.254 53.3125L146.277 54.8359H144.086C143.469 54.8359 142.918 54.8867 142.434 54.9883C141.949 55.082 141.543 55.2266 141.215 55.4219C140.887 55.6172 140.637 55.8633 140.465 56.1602C140.293 56.4492 140.207 56.7891 140.207 57.1797C140.207 57.5781 140.297 57.9414 140.477 58.2695C140.656 58.5977 140.926 58.8594 141.285 59.0547C141.652 59.2422 142.102 59.3359 142.633 59.3359C143.297 59.3359 143.883 59.1953 144.391 58.9141C144.898 58.6328 145.301 58.2891 145.598 57.8828C145.902 57.4766 146.066 57.082 146.09 56.6992L147.016 57.7422C146.961 58.0703 146.812 58.4336 146.57 58.832C146.328 59.2305 146.004 59.6133 145.598 59.9805C145.199 60.3398 144.723 60.6406 144.168 60.8828C143.621 61.1172 143.004 61.2344 142.316 61.2344C141.457 61.2344 140.703 61.0664 140.055 60.7305C139.414 60.3945 138.914 59.9453 138.555 59.3828C138.203 58.8125 138.027 58.1758 138.027 57.4727C138.027 56.793 138.16 56.1953 138.426 55.6797C138.691 55.1562 139.074 54.7227 139.574 54.3789C140.074 54.0273 140.676 53.7617 141.379 53.582C142.082 53.4023 142.867 53.3125 143.734 53.3125H146.254ZM156.766 48.3203V49.9844H149.91V48.3203H156.766ZM152.23 45.2383H154.398V57.8594C154.398 58.2891 154.465 58.6133 154.598 58.832C154.73 59.0508 154.902 59.1953 155.113 59.2656C155.324 59.3359 155.551 59.3711 155.793 59.3711C155.973 59.3711 156.16 59.3555 156.355 59.3242C156.559 59.2852 156.711 59.2539 156.812 59.2305L156.824 61C156.652 61.0547 156.426 61.1055 156.145 61.1523C155.871 61.207 155.539 61.2344 155.148 61.2344C154.617 61.2344 154.129 61.1289 153.684 60.918C153.238 60.707 152.883 60.3555 152.617 59.8633C152.359 59.3633 152.23 58.6914 152.23 57.8477V45.2383ZM166.785 58.832V52.3047C166.785 51.8047 166.684 51.3711 166.48 51.0039C166.285 50.6289 165.988 50.3398 165.59 50.1367C165.191 49.9336 164.699 49.832 164.113 49.832C163.566 49.832 163.086 49.9258 162.672 50.1133C162.266 50.3008 161.945 50.5469 161.711 50.8516C161.484 51.1562 161.371 51.4844 161.371 51.8359H159.203C159.203 51.3828 159.32 50.9336 159.555 50.4883C159.789 50.043 160.125 49.6406 160.562 49.2812C161.008 48.9141 161.539 48.625 162.156 48.4141C162.781 48.1953 163.477 48.0859 164.242 48.0859C165.164 48.0859 165.977 48.2422 166.68 48.5547C167.391 48.8672 167.945 49.3398 168.344 49.9727C168.75 50.5977 168.953 51.3828 168.953 52.3281V58.2344C168.953 58.6562 168.988 59.1055 169.059 59.582C169.137 60.0586 169.25 60.4688 169.398 60.8125V61H167.137C167.027 60.75 166.941 60.418 166.879 60.0039C166.816 59.582 166.785 59.1914 166.785 58.832ZM167.16 53.3125L167.184 54.8359H164.992C164.375 54.8359 163.824 54.8867 163.34 54.9883C162.855 55.082 162.449 55.2266 162.121 55.4219C161.793 55.6172 161.543 55.8633 161.371 56.1602C161.199 56.4492 161.113 56.7891 161.113 57.1797C161.113 57.5781 161.203 57.9414 161.383 58.2695C161.562 58.5977 161.832 58.8594 162.191 59.0547C162.559 59.2422 163.008 59.3359 163.539 59.3359C164.203 59.3359 164.789 59.1953 165.297 58.9141C165.805 58.6328 166.207 58.2891 166.504 57.8828C166.809 57.4766 166.973 57.082 166.996 56.6992L167.922 57.7422C167.867 58.0703 167.719 58.4336 167.477 58.832C167.234 59.2305 166.91 59.6133 166.504 59.9805C166.105 60.3398 165.629 60.6406 165.074 60.8828C164.527 61.1172 163.91 61.2344 163.223 61.2344C162.363 61.2344 161.609 61.0664 160.961 60.7305C160.32 60.3945 159.82 59.9453 159.461 59.3828C159.109 58.8125 158.934 58.1758 158.934 57.4727C158.934 56.793 159.066 56.1953 159.332 55.6797C159.598 55.1562 159.98 54.7227 160.48 54.3789C160.98 54.0273 161.582 53.7617 162.285 53.582C162.988 53.4023 163.773 53.3125 164.641 53.3125H167.16ZM172.352 43H174.531V58.5391L174.344 61H172.352V43ZM183.098 54.5547V54.8008C183.098 55.7227 182.988 56.5781 182.77 57.3672C182.551 58.1484 182.23 58.8281 181.809 59.4062C181.387 59.9844 180.871 60.4336 180.262 60.7539C179.652 61.0742 178.953 61.2344 178.164 61.2344C177.359 61.2344 176.652 61.0977 176.043 60.8242C175.441 60.543 174.934 60.1406 174.52 59.6172C174.105 59.0938 173.773 58.4609 173.523 57.7188C173.281 56.9766 173.113 56.1406 173.02 55.2109V54.1328C173.113 53.1953 173.281 52.3555 173.523 51.6133C173.773 50.8711 174.105 50.2383 174.52 49.7148C174.934 49.1836 175.441 48.7812 176.043 48.5078C176.645 48.2266 177.344 48.0859 178.141 48.0859C178.938 48.0859 179.645 48.2422 180.262 48.5547C180.879 48.8594 181.395 49.2969 181.809 49.8672C182.23 50.4375 182.551 51.1211 182.77 51.918C182.988 52.707 183.098 53.5859 183.098 54.5547ZM180.918 54.8008V54.5547C180.918 53.9219 180.859 53.3281 180.742 52.7734C180.625 52.2109 180.438 51.7188 180.18 51.2969C179.922 50.8672 179.582 50.5312 179.16 50.2891C178.738 50.0391 178.219 49.9141 177.602 49.9141C177.055 49.9141 176.578 50.0078 176.172 50.1953C175.773 50.3828 175.434 50.6367 175.152 50.957C174.871 51.2695 174.641 51.6289 174.461 52.0352C174.289 52.4336 174.16 52.8477 174.074 53.2773V56.1016C174.199 56.6484 174.402 57.1758 174.684 57.6836C174.973 58.1836 175.355 58.5938 175.832 58.9141C176.316 59.2344 176.914 59.3945 177.625 59.3945C178.211 59.3945 178.711 59.2773 179.125 59.043C179.547 58.8008 179.887 58.4688 180.145 58.0469C180.41 57.625 180.605 57.1367 180.73 56.582C180.855 56.0273 180.918 55.4336 180.918 54.8008ZM193.316 58.832V52.3047C193.316 51.8047 193.215 51.3711 193.012 51.0039C192.816 50.6289 192.52 50.3398 192.121 50.1367C191.723 49.9336 191.23 49.832 190.645 49.832C190.098 49.832 189.617 49.9258 189.203 50.1133C188.797 50.3008 188.477 50.5469 188.242 50.8516C188.016 51.1562 187.902 51.4844 187.902 51.8359H185.734C185.734 51.3828 185.852 50.9336 186.086 50.4883C186.32 50.043 186.656 49.6406 187.094 49.2812C187.539 48.9141 188.07 48.625 188.688 48.4141C189.312 48.1953 190.008 48.0859 190.773 48.0859C191.695 48.0859 192.508 48.2422 193.211 48.5547C193.922 48.8672 194.477 49.3398 194.875 49.9727C195.281 50.5977 195.484 51.3828 195.484 52.3281V58.2344C195.484 58.6562 195.52 59.1055 195.59 59.582C195.668 60.0586 195.781 60.4688 195.93 60.8125V61H193.668C193.559 60.75 193.473 60.418 193.41 60.0039C193.348 59.582 193.316 59.1914 193.316 58.832ZM193.691 53.3125L193.715 54.8359H191.523C190.906 54.8359 190.355 54.8867 189.871 54.9883C189.387 55.082 188.98 55.2266 188.652 55.4219C188.324 55.6172 188.074 55.8633 187.902 56.1602C187.73 56.4492 187.645 56.7891 187.645 57.1797C187.645 57.5781 187.734 57.9414 187.914 58.2695C188.094 58.5977 188.363 58.8594 188.723 59.0547C189.09 59.2422 189.539 59.3359 190.07 59.3359C190.734 59.3359 191.32 59.1953 191.828 58.9141C192.336 58.6328 192.738 58.2891 193.035 57.8828C193.34 57.4766 193.504 57.082 193.527 56.6992L194.453 57.7422C194.398 58.0703 194.25 58.4336 194.008 58.832C193.766 59.2305 193.441 59.6133 193.035 59.9805C192.637 60.3398 192.16 60.6406 191.605 60.8828C191.059 61.1172 190.441 61.2344 189.754 61.2344C188.895 61.2344 188.141 61.0664 187.492 60.7305C186.852 60.3945 186.352 59.9453 185.992 59.3828C185.641 58.8125 185.465 58.1758 185.465 57.4727C185.465 56.793 185.598 56.1953 185.863 55.6797C186.129 55.1562 186.512 54.7227 187.012 54.3789C187.512 54.0273 188.113 53.7617 188.816 53.582C189.52 53.4023 190.305 53.3125 191.172 53.3125H193.691ZM206.277 57.6367C206.277 57.3242 206.207 57.0352 206.066 56.7695C205.934 56.4961 205.656 56.25 205.234 56.0312C204.82 55.8047 204.195 55.6094 203.359 55.4453C202.656 55.2969 202.02 55.1211 201.449 54.918C200.887 54.7148 200.406 54.4688 200.008 54.1797C199.617 53.8906 199.316 53.5508 199.105 53.1602C198.895 52.7695 198.789 52.3125 198.789 51.7891C198.789 51.2891 198.898 50.8164 199.117 50.3711C199.344 49.9258 199.66 49.5312 200.066 49.1875C200.48 48.8438 200.977 48.5742 201.555 48.3789C202.133 48.1836 202.777 48.0859 203.488 48.0859C204.504 48.0859 205.371 48.2656 206.09 48.625C206.809 48.9844 207.359 49.4648 207.742 50.0664C208.125 50.6602 208.316 51.3203 208.316 52.0469H206.148C206.148 51.6953 206.043 51.3555 205.832 51.0273C205.629 50.6914 205.328 50.4141 204.93 50.1953C204.539 49.9766 204.059 49.8672 203.488 49.8672C202.887 49.8672 202.398 49.9609 202.023 50.1484C201.656 50.3281 201.387 50.5586 201.215 50.8398C201.051 51.1211 200.969 51.418 200.969 51.7305C200.969 51.9648 201.008 52.1758 201.086 52.3633C201.172 52.543 201.32 52.7109 201.531 52.8672C201.742 53.0156 202.039 53.1562 202.422 53.2891C202.805 53.4219 203.293 53.5547 203.887 53.6875C204.926 53.9219 205.781 54.2031 206.453 54.5312C207.125 54.8594 207.625 55.2617 207.953 55.7383C208.281 56.2148 208.445 56.793 208.445 57.4727C208.445 58.0273 208.328 58.5352 208.094 58.9961C207.867 59.457 207.535 59.8555 207.098 60.1914C206.668 60.5195 206.152 60.7773 205.551 60.9648C204.957 61.1445 204.289 61.2344 203.547 61.2344C202.43 61.2344 201.484 61.0352 200.711 60.6367C199.938 60.2383 199.352 59.7227 198.953 59.0898C198.555 58.457 198.355 57.7891 198.355 57.0859H200.535C200.566 57.6797 200.738 58.1523 201.051 58.5039C201.363 58.8477 201.746 59.0938 202.199 59.2422C202.652 59.3828 203.102 59.4531 203.547 59.4531C204.141 59.4531 204.637 59.375 205.035 59.2188C205.441 59.0625 205.75 58.8477 205.961 58.5742C206.172 58.3008 206.277 57.9883 206.277 57.6367ZM216.555 61.2344C215.672 61.2344 214.871 61.0859 214.152 60.7891C213.441 60.4844 212.828 60.0586 212.312 59.5117C211.805 58.9648 211.414 58.3164 211.141 57.5664C210.867 56.8164 210.73 55.9961 210.73 55.1055V54.6133C210.73 53.582 210.883 52.6641 211.188 51.8594C211.492 51.0469 211.906 50.3594 212.43 49.7969C212.953 49.2344 213.547 48.8086 214.211 48.5195C214.875 48.2305 215.562 48.0859 216.273 48.0859C217.18 48.0859 217.961 48.2422 218.617 48.5547C219.281 48.8672 219.824 49.3047 220.246 49.8672C220.668 50.4219 220.98 51.0781 221.184 51.8359C221.387 52.5859 221.488 53.4062 221.488 54.2969V55.2695H212.02V53.5H219.32V53.3359C219.289 52.7734 219.172 52.2266 218.969 51.6953C218.773 51.1641 218.461 50.7266 218.031 50.3828C217.602 50.0391 217.016 49.8672 216.273 49.8672C215.781 49.8672 215.328 49.9727 214.914 50.1836C214.5 50.3867 214.145 50.6914 213.848 51.0977C213.551 51.5039 213.32 52 213.156 52.5859C212.992 53.1719 212.91 53.8477 212.91 54.6133V55.1055C212.91 55.707 212.992 56.2734 213.156 56.8047C213.328 57.3281 213.574 57.7891 213.895 58.1875C214.223 58.5859 214.617 58.8984 215.078 59.125C215.547 59.3516 216.078 59.4648 216.672 59.4648C217.438 59.4648 218.086 59.3086 218.617 58.9961C219.148 58.6836 219.613 58.2656 220.012 57.7422L221.324 58.7852C221.051 59.1992 220.703 59.5938 220.281 59.9688C219.859 60.3438 219.34 60.6484 218.723 60.8828C218.113 61.1172 217.391 61.2344 216.555 61.2344ZM231.402 57.6367C231.402 57.3242 231.332 57.0352 231.191 56.7695C231.059 56.4961 230.781 56.25 230.359 56.0312C229.945 55.8047 229.32 55.6094 228.484 55.4453C227.781 55.2969 227.145 55.1211 226.574 54.918C226.012 54.7148 225.531 54.4688 225.133 54.1797C224.742 53.8906 224.441 53.5508 224.23 53.1602C224.02 52.7695 223.914 52.3125 223.914 51.7891C223.914 51.2891 224.023 50.8164 224.242 50.3711C224.469 49.9258 224.785 49.5312 225.191 49.1875C225.605 48.8438 226.102 48.5742 226.68 48.3789C227.258 48.1836 227.902 48.0859 228.613 48.0859C229.629 48.0859 230.496 48.2656 231.215 48.625C231.934 48.9844 232.484 49.4648 232.867 50.0664C233.25 50.6602 233.441 51.3203 233.441 52.0469H231.273C231.273 51.6953 231.168 51.3555 230.957 51.0273C230.754 50.6914 230.453 50.4141 230.055 50.1953C229.664 49.9766 229.184 49.8672 228.613 49.8672C228.012 49.8672 227.523 49.9609 227.148 50.1484C226.781 50.3281 226.512 50.5586 226.34 50.8398C226.176 51.1211 226.094 51.418 226.094 51.7305C226.094 51.9648 226.133 52.1758 226.211 52.3633C226.297 52.543 226.445 52.7109 226.656 52.8672C226.867 53.0156 227.164 53.1562 227.547 53.2891C227.93 53.4219 228.418 53.5547 229.012 53.6875C230.051 53.9219 230.906 54.2031 231.578 54.5312C232.25 54.8594 232.75 55.2617 233.078 55.7383C233.406 56.2148 233.57 56.793 233.57 57.4727C233.57 58.0273 233.453 58.5352 233.219 58.9961C232.992 59.457 232.66 59.8555 232.223 60.1914C231.793 60.5195 231.277 60.7773 230.676 60.9648C230.082 61.1445 229.414 61.2344 228.672 61.2344C227.555 61.2344 226.609 61.0352 225.836 60.6367C225.062 60.2383 224.477 59.7227 224.078 59.0898C223.68 58.457 223.48 57.7891 223.48 57.0859H225.66C225.691 57.6797 225.863 58.1523 226.176 58.5039C226.488 58.8477 226.871 59.0938 227.324 59.2422C227.777 59.3828 228.227 59.4531 228.672 59.4531C229.266 59.4531 229.762 59.375 230.16 59.2188C230.566 59.0625 230.875 58.8477 231.086 58.5742C231.297 58.3008 231.402 57.9883 231.402 57.6367ZM245.523 51.5312L248.078 49.7148C248.57 49.3789 248.949 49.043 249.215 48.707C249.488 48.3633 249.625 47.8945 249.625 47.3008C249.625 46.8398 249.445 46.4219 249.086 46.0469C248.727 45.6641 248.219 45.4727 247.562 45.4727C247.109 45.4727 246.727 45.5781 246.414 45.7891C246.102 46 245.867 46.2812 245.711 46.6328C245.555 46.9766 245.477 47.3555 245.477 47.7695C245.477 48.1211 245.562 48.4844 245.734 48.8594C245.906 49.2344 246.145 49.625 246.449 50.0312C246.754 50.4375 247.102 50.8672 247.492 51.3203L255.566 61H252.965L246.344 53.0781C245.758 52.3906 245.234 51.7617 244.773 51.1914C244.312 50.6133 243.949 50.0547 243.684 49.5156C243.426 48.9766 243.297 48.418 243.297 47.8398C243.297 46.9492 243.473 46.1992 243.824 45.5898C244.184 44.9727 244.684 44.5039 245.324 44.1836C245.965 43.8633 246.715 43.7031 247.574 43.7031C248.41 43.7031 249.129 43.8711 249.73 44.207C250.34 44.5352 250.809 44.9727 251.137 45.5195C251.465 46.0586 251.629 46.6523 251.629 47.3008C251.629 47.8477 251.531 48.3398 251.336 48.7773C251.141 49.207 250.867 49.6016 250.516 49.9609C250.172 50.3203 249.77 50.6719 249.309 51.0156L245.922 53.5352C245.359 53.9492 244.949 54.3438 244.691 54.7188C244.434 55.0938 244.266 55.4258 244.188 55.7148C244.117 56.0039 244.082 56.2344 244.082 56.4062C244.082 56.9609 244.203 57.4688 244.445 57.9297C244.688 58.3906 245.055 58.7617 245.547 59.043C246.047 59.3164 246.672 59.4531 247.422 59.4531C248.078 59.4531 248.715 59.3047 249.332 59.0078C249.957 58.7031 250.516 58.2734 251.008 57.7188C251.5 57.1562 251.891 56.4883 252.18 55.7148C252.477 54.9336 252.625 54.0703 252.625 53.125H254.57C254.57 53.8984 254.496 54.6289 254.348 55.3164C254.199 56.0039 253.969 56.6445 253.656 57.2383C253.352 57.8242 252.961 58.3594 252.484 58.8438C252.414 58.9141 252.359 58.9961 252.32 59.0898C252.281 59.1836 252.227 59.2656 252.156 59.3359C251.57 59.9688 250.848 60.4453 249.988 60.7656C249.137 61.0781 248.281 61.2344 247.422 61.2344C246.289 61.2344 245.309 61.0273 244.48 60.6133C243.66 60.1992 243.027 59.6289 242.582 58.9023C242.137 58.1758 241.914 57.3438 241.914 56.4062C241.914 55.6875 242.066 55.0547 242.371 54.5078C242.684 53.9609 243.109 53.4492 243.648 52.9727C244.195 52.4961 244.82 52.0156 245.523 51.5312ZM127.469 83.8438L130.855 71.9375H132.496L131.547 76.5664L127.902 89H126.273L127.469 83.8438ZM123.965 71.9375L126.66 83.6094L127.469 89H125.852L121.715 71.9375H123.965ZM136.879 83.5977L139.516 71.9375H141.777L137.652 89H136.035L136.879 83.5977ZM132.742 71.9375L136.035 83.8438L137.23 89H135.602L132.086 76.5664L131.125 71.9375H132.742ZM148.844 89.2344C147.961 89.2344 147.16 89.0859 146.441 88.7891C145.73 88.4844 145.117 88.0586 144.602 87.5117C144.094 86.9648 143.703 86.3164 143.43 85.5664C143.156 84.8164 143.02 83.9961 143.02 83.1055V82.6133C143.02 81.582 143.172 80.6641 143.477 79.8594C143.781 79.0469 144.195 78.3594 144.719 77.7969C145.242 77.2344 145.836 76.8086 146.5 76.5195C147.164 76.2305 147.852 76.0859 148.562 76.0859C149.469 76.0859 150.25 76.2422 150.906 76.5547C151.57 76.8672 152.113 77.3047 152.535 77.8672C152.957 78.4219 153.27 79.0781 153.473 79.8359C153.676 80.5859 153.777 81.4062 153.777 82.2969V83.2695H144.309V81.5H151.609V81.3359C151.578 80.7734 151.461 80.2266 151.258 79.6953C151.062 79.1641 150.75 78.7266 150.32 78.3828C149.891 78.0391 149.305 77.8672 148.562 77.8672C148.07 77.8672 147.617 77.9727 147.203 78.1836C146.789 78.3867 146.434 78.6914 146.137 79.0977C145.84 79.5039 145.609 80 145.445 80.5859C145.281 81.1719 145.199 81.8477 145.199 82.6133V83.1055C145.199 83.707 145.281 84.2734 145.445 84.8047C145.617 85.3281 145.863 85.7891 146.184 86.1875C146.512 86.5859 146.906 86.8984 147.367 87.125C147.836 87.3516 148.367 87.4648 148.961 87.4648C149.727 87.4648 150.375 87.3086 150.906 86.9961C151.438 86.6836 151.902 86.2656 152.301 85.7422L153.613 86.7852C153.34 87.1992 152.992 87.5938 152.57 87.9688C152.148 88.3438 151.629 88.6484 151.012 88.8828C150.402 89.1172 149.68 89.2344 148.844 89.2344ZM156.297 71H158.477V86.5391L158.289 89H156.297V71ZM167.043 82.5547V82.8008C167.043 83.7227 166.934 84.5781 166.715 85.3672C166.496 86.1484 166.176 86.8281 165.754 87.4062C165.332 87.9844 164.816 88.4336 164.207 88.7539C163.598 89.0742 162.898 89.2344 162.109 89.2344C161.305 89.2344 160.598 89.0977 159.988 88.8242C159.387 88.543 158.879 88.1406 158.465 87.6172C158.051 87.0938 157.719 86.4609 157.469 85.7188C157.227 84.9766 157.059 84.1406 156.965 83.2109V82.1328C157.059 81.1953 157.227 80.3555 157.469 79.6133C157.719 78.8711 158.051 78.2383 158.465 77.7148C158.879 77.1836 159.387 76.7812 159.988 76.5078C160.59 76.2266 161.289 76.0859 162.086 76.0859C162.883 76.0859 163.59 76.2422 164.207 76.5547C164.824 76.8594 165.34 77.2969 165.754 77.8672C166.176 78.4375 166.496 79.1211 166.715 79.918C166.934 80.707 167.043 81.5859 167.043 82.5547ZM164.863 82.8008V82.5547C164.863 81.9219 164.805 81.3281 164.688 80.7734C164.57 80.2109 164.383 79.7188 164.125 79.2969C163.867 78.8672 163.527 78.5312 163.105 78.2891C162.684 78.0391 162.164 77.9141 161.547 77.9141C161 77.9141 160.523 78.0078 160.117 78.1953C159.719 78.3828 159.379 78.6367 159.098 78.957C158.816 79.2695 158.586 79.6289 158.406 80.0352C158.234 80.4336 158.105 80.8477 158.02 81.2773V84.1016C158.145 84.6484 158.348 85.1758 158.629 85.6836C158.918 86.1836 159.301 86.5938 159.777 86.9141C160.262 87.2344 160.859 87.3945 161.57 87.3945C162.156 87.3945 162.656 87.2773 163.07 87.043C163.492 86.8008 163.832 86.4688 164.09 86.0469C164.355 85.625 164.551 85.1367 164.676 84.582C164.801 84.0273 164.863 83.4336 164.863 82.8008ZM182.383 73.4492L176.734 89H174.426L180.93 71.9375H182.418L182.383 73.4492ZM187.117 89L181.457 73.4492L181.422 71.9375H182.91L189.438 89H187.117ZM186.824 82.6836V84.5352H177.238V82.6836H186.824ZM193.562 78.7578V93.875H191.383V76.3203H193.375L193.562 78.7578ZM202.105 82.5547V82.8008C202.105 83.7227 201.996 84.5781 201.777 85.3672C201.559 86.1484 201.238 86.8281 200.816 87.4062C200.402 87.9844 199.891 88.4336 199.281 88.7539C198.672 89.0742 197.973 89.2344 197.184 89.2344C196.379 89.2344 195.668 89.1016 195.051 88.8359C194.434 88.5703 193.91 88.1836 193.48 87.6758C193.051 87.168 192.707 86.5586 192.449 85.8477C192.199 85.1367 192.027 84.3359 191.934 83.4453V82.1328C192.027 81.1953 192.203 80.3555 192.461 79.6133C192.719 78.8711 193.059 78.2383 193.48 77.7148C193.91 77.1836 194.43 76.7812 195.039 76.5078C195.648 76.2266 196.352 76.0859 197.148 76.0859C197.945 76.0859 198.652 76.2422 199.27 76.5547C199.887 76.8594 200.406 77.2969 200.828 77.8672C201.25 78.4375 201.566 79.1211 201.777 79.918C201.996 80.707 202.105 81.5859 202.105 82.5547ZM199.926 82.8008V82.5547C199.926 81.9219 199.859 81.3281 199.727 80.7734C199.594 80.2109 199.387 79.7188 199.105 79.2969C198.832 78.8672 198.48 78.5312 198.051 78.2891C197.621 78.0391 197.109 77.9141 196.516 77.9141C195.969 77.9141 195.492 78.0078 195.086 78.1953C194.688 78.3828 194.348 78.6367 194.066 78.957C193.785 79.2695 193.555 79.6289 193.375 80.0352C193.203 80.4336 193.074 80.8477 192.988 81.2773V84.3125C193.145 84.8594 193.363 85.375 193.645 85.8594C193.926 86.3359 194.301 86.7227 194.77 87.0195C195.238 87.3086 195.828 87.4531 196.539 87.4531C197.125 87.4531 197.629 87.332 198.051 87.0898C198.48 86.8398 198.832 86.5 199.105 86.0703C199.387 85.6406 199.594 85.1484 199.727 84.5938C199.859 84.0312 199.926 83.4336 199.926 82.8008ZM207.039 78.7578V93.875H204.859V76.3203H206.852L207.039 78.7578ZM215.582 82.5547V82.8008C215.582 83.7227 215.473 84.5781 215.254 85.3672C215.035 86.1484 214.715 86.8281 214.293 87.4062C213.879 87.9844 213.367 88.4336 212.758 88.7539C212.148 89.0742 211.449 89.2344 210.66 89.2344C209.855 89.2344 209.145 89.1016 208.527 88.8359C207.91 88.5703 207.387 88.1836 206.957 87.6758C206.527 87.168 206.184 86.5586 205.926 85.8477C205.676 85.1367 205.504 84.3359 205.41 83.4453V82.1328C205.504 81.1953 205.68 80.3555 205.938 79.6133C206.195 78.8711 206.535 78.2383 206.957 77.7148C207.387 77.1836 207.906 76.7812 208.516 76.5078C209.125 76.2266 209.828 76.0859 210.625 76.0859C211.422 76.0859 212.129 76.2422 212.746 76.5547C213.363 76.8594 213.883 77.2969 214.305 77.8672C214.727 78.4375 215.043 79.1211 215.254 79.918C215.473 80.707 215.582 81.5859 215.582 82.5547ZM213.402 82.8008V82.5547C213.402 81.9219 213.336 81.3281 213.203 80.7734C213.07 80.2109 212.863 79.7188 212.582 79.2969C212.309 78.8672 211.957 78.5312 211.527 78.2891C211.098 78.0391 210.586 77.9141 209.992 77.9141C209.445 77.9141 208.969 78.0078 208.562 78.1953C208.164 78.3828 207.824 78.6367 207.543 78.957C207.262 79.2695 207.031 79.6289 206.852 80.0352C206.68 80.4336 206.551 80.8477 206.465 81.2773V84.3125C206.621 84.8594 206.84 85.375 207.121 85.8594C207.402 86.3359 207.777 86.7227 208.246 87.0195C208.715 87.3086 209.305 87.4531 210.016 87.4531C210.602 87.4531 211.105 87.332 211.527 87.0898C211.957 86.8398 212.309 86.5 212.582 86.0703C212.863 85.6406 213.07 85.1484 213.203 84.5938C213.336 84.0312 213.402 83.4336 213.402 82.8008ZM220.703 71V89H218.523V71H220.703ZM226.539 76.3203V89H224.359V76.3203H226.539ZM224.195 72.957C224.195 72.6055 224.301 72.3086 224.512 72.0664C224.73 71.8242 225.051 71.7031 225.473 71.7031C225.887 71.7031 226.203 71.8242 226.422 72.0664C226.648 72.3086 226.762 72.6055 226.762 72.957C226.762 73.293 226.648 73.582 226.422 73.8242C226.203 74.0586 225.887 74.1758 225.473 74.1758C225.051 74.1758 224.73 74.0586 224.512 73.8242C224.301 73.582 224.195 73.293 224.195 72.957ZM235.094 87.4531C235.609 87.4531 236.086 87.3477 236.523 87.1367C236.961 86.9258 237.32 86.6367 237.602 86.2695C237.883 85.8945 238.043 85.4688 238.082 84.9922H240.145C240.105 85.7422 239.852 86.4414 239.383 87.0898C238.922 87.7305 238.316 88.25 237.566 88.6484C236.816 89.0391 235.992 89.2344 235.094 89.2344C234.141 89.2344 233.309 89.0664 232.598 88.7305C231.895 88.3945 231.309 87.9336 230.84 87.3477C230.379 86.7617 230.031 86.0898 229.797 85.332C229.57 84.5664 229.457 83.7578 229.457 82.9062V82.4141C229.457 81.5625 229.57 80.7578 229.797 80C230.031 79.2344 230.379 78.5586 230.84 77.9727C231.309 77.3867 231.895 76.9258 232.598 76.5898C233.309 76.2539 234.141 76.0859 235.094 76.0859C236.086 76.0859 236.953 76.2891 237.695 76.6953C238.438 77.0938 239.02 77.6406 239.441 78.3359C239.871 79.0234 240.105 79.8047 240.145 80.6797H238.082C238.043 80.1562 237.895 79.6836 237.637 79.2617C237.387 78.8398 237.043 78.5039 236.605 78.2539C236.176 77.9961 235.672 77.8672 235.094 77.8672C234.43 77.8672 233.871 78 233.418 78.2656C232.973 78.5234 232.617 78.875 232.352 79.3203C232.094 79.7578 231.906 80.2461 231.789 80.7852C231.68 81.3164 231.625 81.8594 231.625 82.4141V82.9062C231.625 83.4609 231.68 84.0078 231.789 84.5469C231.898 85.0859 232.082 85.5742 232.34 86.0117C232.605 86.4492 232.961 86.8008 233.406 87.0664C233.859 87.3242 234.422 87.4531 235.094 87.4531ZM250.059 86.832V80.3047C250.059 79.8047 249.957 79.3711 249.754 79.0039C249.559 78.6289 249.262 78.3398 248.863 78.1367C248.465 77.9336 247.973 77.832 247.387 77.832C246.84 77.832 246.359 77.9258 245.945 78.1133C245.539 78.3008 245.219 78.5469 244.984 78.8516C244.758 79.1562 244.645 79.4844 244.645 79.8359H242.477C242.477 79.3828 242.594 78.9336 242.828 78.4883C243.062 78.043 243.398 77.6406 243.836 77.2812C244.281 76.9141 244.812 76.625 245.43 76.4141C246.055 76.1953 246.75 76.0859 247.516 76.0859C248.438 76.0859 249.25 76.2422 249.953 76.5547C250.664 76.8672 251.219 77.3398 251.617 77.9727C252.023 78.5977 252.227 79.3828 252.227 80.3281V86.2344C252.227 86.6562 252.262 87.1055 252.332 87.582C252.41 88.0586 252.523 88.4688 252.672 88.8125V89H250.41C250.301 88.75 250.215 88.418 250.152 88.0039C250.09 87.582 250.059 87.1914 250.059 86.832ZM250.434 81.3125L250.457 82.8359H248.266C247.648 82.8359 247.098 82.8867 246.613 82.9883C246.129 83.082 245.723 83.2266 245.395 83.4219C245.066 83.6172 244.816 83.8633 244.645 84.1602C244.473 84.4492 244.387 84.7891 244.387 85.1797C244.387 85.5781 244.477 85.9414 244.656 86.2695C244.836 86.5977 245.105 86.8594 245.465 87.0547C245.832 87.2422 246.281 87.3359 246.812 87.3359C247.477 87.3359 248.062 87.1953 248.57 86.9141C249.078 86.6328 249.48 86.2891 249.777 85.8828C250.082 85.4766 250.246 85.082 250.27 84.6992L251.195 85.7422C251.141 86.0703 250.992 86.4336 250.75 86.832C250.508 87.2305 250.184 87.6133 249.777 87.9805C249.379 88.3398 248.902 88.6406 248.348 88.8828C247.801 89.1172 247.184 89.2344 246.496 89.2344C245.637 89.2344 244.883 89.0664 244.234 88.7305C243.594 88.3945 243.094 87.9453 242.734 87.3828C242.383 86.8125 242.207 86.1758 242.207 85.4727C242.207 84.793 242.34 84.1953 242.605 83.6797C242.871 83.1562 243.254 82.7227 243.754 82.3789C244.254 82.0273 244.855 81.7617 245.559 81.582C246.262 81.4023 247.047 81.3125 247.914 81.3125H250.434ZM260.945 76.3203V77.9844H254.09V76.3203H260.945ZM256.41 73.2383H258.578V85.8594C258.578 86.2891 258.645 86.6133 258.777 86.832C258.91 87.0508 259.082 87.1953 259.293 87.2656C259.504 87.3359 259.73 87.3711 259.973 87.3711C260.152 87.3711 260.34 87.3555 260.535 87.3242C260.738 87.2852 260.891 87.2539 260.992 87.2305L261.004 89C260.832 89.0547 260.605 89.1055 260.324 89.1523C260.051 89.207 259.719 89.2344 259.328 89.2344C258.797 89.2344 258.309 89.1289 257.863 88.918C257.418 88.707 257.062 88.3555 256.797 87.8633C256.539 87.3633 256.41 86.6914 256.41 85.8477V73.2383ZM265.844 76.3203V89H263.664V76.3203H265.844ZM263.5 72.957C263.5 72.6055 263.605 72.3086 263.816 72.0664C264.035 71.8242 264.355 71.7031 264.777 71.7031C265.191 71.7031 265.508 71.8242 265.727 72.0664C265.953 72.3086 266.066 72.6055 266.066 72.957C266.066 73.293 265.953 73.582 265.727 73.8242C265.508 74.0586 265.191 74.1758 264.777 74.1758C264.355 74.1758 264.035 74.0586 263.816 73.8242C263.605 73.582 263.5 73.293 263.5 72.957ZM268.75 82.8008V82.5312C268.75 81.6172 268.883 80.7695 269.148 79.9883C269.414 79.1992 269.797 78.5156 270.297 77.9375C270.797 77.3516 271.402 76.8984 272.113 76.5781C272.824 76.25 273.621 76.0859 274.504 76.0859C275.395 76.0859 276.195 76.25 276.906 76.5781C277.625 76.8984 278.234 77.3516 278.734 77.9375C279.242 78.5156 279.629 79.1992 279.895 79.9883C280.16 80.7695 280.293 81.6172 280.293 82.5312V82.8008C280.293 83.7148 280.16 84.5625 279.895 85.3438C279.629 86.125 279.242 86.8086 278.734 87.3945C278.234 87.9727 277.629 88.4258 276.918 88.7539C276.215 89.0742 275.418 89.2344 274.527 89.2344C273.637 89.2344 272.836 89.0742 272.125 88.7539C271.414 88.4258 270.805 87.9727 270.297 87.3945C269.797 86.8086 269.414 86.125 269.148 85.3438C268.883 84.5625 268.75 83.7148 268.75 82.8008ZM270.918 82.5312V82.8008C270.918 83.4336 270.992 84.0312 271.141 84.5938C271.289 85.1484 271.512 85.6406 271.809 86.0703C272.113 86.5 272.492 86.8398 272.945 87.0898C273.398 87.332 273.926 87.4531 274.527 87.4531C275.121 87.4531 275.641 87.332 276.086 87.0898C276.539 86.8398 276.914 86.5 277.211 86.0703C277.508 85.6406 277.73 85.1484 277.879 84.5938C278.035 84.0312 278.113 83.4336 278.113 82.8008V82.5312C278.113 81.9062 278.035 81.3164 277.879 80.7617C277.73 80.1992 277.504 79.7031 277.199 79.2734C276.902 78.8359 276.527 78.4922 276.074 78.2422C275.629 77.9922 275.105 77.8672 274.504 77.8672C273.91 77.8672 273.387 77.9922 272.934 78.2422C272.488 78.4922 272.113 78.8359 271.809 79.2734C271.512 79.7031 271.289 80.1992 271.141 80.7617C270.992 81.3164 270.918 81.9062 270.918 82.5312ZM285.18 79.0273V89H283.012V76.3203H285.062L285.18 79.0273ZM284.664 82.1797L283.762 82.1445C283.77 81.2773 283.898 80.4766 284.148 79.7422C284.398 79 284.75 78.3555 285.203 77.8086C285.656 77.2617 286.195 76.8398 286.82 76.543C287.453 76.2383 288.152 76.0859 288.918 76.0859C289.543 76.0859 290.105 76.1719 290.605 76.3438C291.105 76.5078 291.531 76.7734 291.883 77.1406C292.242 77.5078 292.516 77.9844 292.703 78.5703C292.891 79.1484 292.984 79.8555 292.984 80.6914V89H290.805V80.668C290.805 80.0039 290.707 79.4727 290.512 79.0742C290.316 78.668 290.031 78.375 289.656 78.1953C289.281 78.0078 288.82 77.9141 288.273 77.9141C287.734 77.9141 287.242 78.0273 286.797 78.2539C286.359 78.4805 285.98 78.793 285.66 79.1914C285.348 79.5898 285.102 80.0469 284.922 80.5625C284.75 81.0703 284.664 81.6094 284.664 82.1797ZM303.66 85.6367C303.66 85.3242 303.59 85.0352 303.449 84.7695C303.316 84.4961 303.039 84.25 302.617 84.0312C302.203 83.8047 301.578 83.6094 300.742 83.4453C300.039 83.2969 299.402 83.1211 298.832 82.918C298.27 82.7148 297.789 82.4688 297.391 82.1797C297 81.8906 296.699 81.5508 296.488 81.1602C296.277 80.7695 296.172 80.3125 296.172 79.7891C296.172 79.2891 296.281 78.8164 296.5 78.3711C296.727 77.9258 297.043 77.5312 297.449 77.1875C297.863 76.8438 298.359 76.5742 298.938 76.3789C299.516 76.1836 300.16 76.0859 300.871 76.0859C301.887 76.0859 302.754 76.2656 303.473 76.625C304.191 76.9844 304.742 77.4648 305.125 78.0664C305.508 78.6602 305.699 79.3203 305.699 80.0469H303.531C303.531 79.6953 303.426 79.3555 303.215 79.0273C303.012 78.6914 302.711 78.4141 302.312 78.1953C301.922 77.9766 301.441 77.8672 300.871 77.8672C300.27 77.8672 299.781 77.9609 299.406 78.1484C299.039 78.3281 298.77 78.5586 298.598 78.8398C298.434 79.1211 298.352 79.418 298.352 79.7305C298.352 79.9648 298.391 80.1758 298.469 80.3633C298.555 80.543 298.703 80.7109 298.914 80.8672C299.125 81.0156 299.422 81.1562 299.805 81.2891C300.188 81.4219 300.676 81.5547 301.27 81.6875C302.309 81.9219 303.164 82.2031 303.836 82.5312C304.508 82.8594 305.008 83.2617 305.336 83.7383C305.664 84.2148 305.828 84.793 305.828 85.4727C305.828 86.0273 305.711 86.5352 305.477 86.9961C305.25 87.457 304.918 87.8555 304.48 88.1914C304.051 88.5195 303.535 88.7773 302.934 88.9648C302.34 89.1445 301.672 89.2344 300.93 89.2344C299.812 89.2344 298.867 89.0352 298.094 88.6367C297.32 88.2383 296.734 87.7227 296.336 87.0898C295.938 86.457 295.738 85.7891 295.738 85.0859H297.918C297.949 85.6797 298.121 86.1523 298.434 86.5039C298.746 86.8477 299.129 87.0938 299.582 87.2422C300.035 87.3828 300.484 87.4531 300.93 87.4531C301.523 87.4531 302.02 87.375 302.418 87.2188C302.824 87.0625 303.133 86.8477 303.344 86.5742C303.555 86.3008 303.66 85.9883 303.66 85.6367Z" fill="#F3F3F3"/>
</svg>
